<svg width="96" height="96" viewBox="0 0 96 96" fill="none" xmlns="http://www.w3.org/2000/svg">
  <rect width="96" height="96" rx="22" fill="#162B20"/>
  <!-- Liana green "vine + key": a sprout leaf over a key bow -->
  <path d="M48 22c-12 6-18 16-18 27 0 2 .3 4 .9 6 6.5-1.5 12.4-5.6 16-11.4C50.5 39 49 30 48 22z"
        fill="#00FF66"/>
  <path d="M48 22c12 6 18 16 18 27 0 2-.3 4-.9 6-6.5-1.5-12.4-5.6-16-11.4C45.5 39 47 30 48 22z"
        fill="#4CA55E"/>
  <circle cx="48" cy="64" r="9" stroke="#00FF66" stroke-width="5" fill="none"/>
  <rect x="45" y="62" width="6" height="16" rx="2" fill="#00FF66"/>
  <rect x="51" y="70" width="7" height="5" rx="1.5" fill="#00FF66"/>
</svg>
